<?xml version="1.0" encoding="iso-8859-1"?>
<!-- Uploaded to: SVG Repo, www.svgrepo.com, Generator: SVG Repo Mixer Tools -->
<!DOCTYPE svg PUBLIC "-//W3C//DTD SVG 1.1//EN" "http://www.w3.org/Graphics/SVG/1.1/DTD/svg11.dtd">
<svg fill="#000000" height="800px" width="800px" version="1.1" id="Capa_1" xmlns="http://www.w3.org/2000/svg" xmlns:xlink="http://www.w3.org/1999/xlink" 
	 viewBox="0 0 217.211 217.211" xml:space="preserve">
<path d="M212.795,105.908l-24.859-2.925l-8.513-17.026c-0.847-1.693-2.578-2.764-4.472-2.764h-23.976c-2.761,0-5,2.238-5,5v0.691
	v18.346v21.957H10.272c-1.756,0-3.384,0.922-4.288,2.428c-0.903,1.506-0.951,3.376-0.124,4.926l5.192,9.733
	c0.389,0.728,0.949,1.325,1.607,1.773c0.697,9.018,8.241,16.146,17.434,16.146c4.896,0,9.323-2.026,12.503-5.278
	c3.18,3.251,7.607,5.278,12.503,5.278c8.894,0,16.243-6.673,17.345-15.272h78.53h20.522c1.101,8.6,8.45,15.272,17.345,15.272
	s16.244-6.673,17.345-15.272h6.024c2.761,0,5-2.238,5-5v-33.047C217.211,108.338,215.314,106.204,212.795,105.908z M155.976,102.23
	v-8.346h13.507l5.023,8.346H155.976z M151.449,53.018h-14.39H22.254c-2.22,0-4.173,1.463-4.798,3.593L0.202,115.446
	c-0.443,1.512-0.148,3.144,0.795,4.404c0.944,1.261,2.427,2.003,4.002,2.003h115.469c2.239,0,4.205-1.488,4.813-3.643l15.563-55.192
	h10.604c2.761,0,5-2.238,5-5S154.21,53.018,151.449,53.018z M37.771,67.562l-13.579,42.136c-0.683,2.119-2.646,3.468-4.758,3.468
	c-0.508,0-1.025-0.078-1.535-0.242c-2.628-0.847-4.072-3.664-3.225-6.292l13.579-42.136c0.847-2.629,3.664-4.074,6.292-3.226
	C37.174,62.117,38.618,64.934,37.771,67.562z M66.854,67.562l-13.579,42.136c-0.683,2.119-2.646,3.468-4.758,3.468
	c-0.508,0-1.025-0.078-1.535-0.242c-2.628-0.847-4.072-3.664-3.225-6.292l13.579-42.136c0.847-2.629,3.664-4.074,6.292-3.226
	C66.257,62.117,67.701,64.934,66.854,67.562z M95.937,67.562l-13.579,42.136c-0.683,2.119-2.646,3.468-4.758,3.468
	c-0.508,0-1.025-0.078-1.535-0.242c-2.628-0.847-4.072-3.664-3.225-6.292l13.579-42.136c0.846-2.629,3.664-4.074,6.292-3.226
	C95.34,62.117,96.784,64.934,95.937,67.562z M125.021,67.562l-13.579,42.136c-0.683,2.119-2.646,3.468-4.758,3.468
	c-0.508,0-1.025-0.078-1.535-0.242c-2.628-0.847-4.072-3.664-3.225-6.292l13.579-42.136c0.846-2.629,3.664-4.074,6.292-3.226
	C124.424,62.117,125.868,64.934,125.021,67.562z"/>
</svg>