<?xml version='1.0' encoding='utf-8'?>
<svg xmlns:xlink="http://www.w3.org/1999/xlink" xmlns="http://www.w3.org/2000/svg" width="118.64mm" height="195.71mm" version="1.1" viewBox="0 0 118.64 195.71"><defs><linearGradient id="b"><stop stop-color="#2b6b00" offset="0"/><stop stop-color="#250" offset="1"/></linearGradient><linearGradient id="f" x1="104.38" x2="109.8" y1="169.2" y2="169.07" gradientUnits="userSpaceOnUse"><stop stop-color="#1e4a00" offset="0"/><stop stop-color="#183d00" offset="1"/></linearGradient><linearGradient id="e" x1="73.422" x2="104.25" y1="166.69" y2="167.22" gradientUnits="userSpaceOnUse"><stop stop-color="#338000" offset="0"/><stop stop-color="#250" offset="1"/></linearGradient><linearGradient id="k" x1="68.936" x2="104.65" y1="144.9" y2="147.49" gradientUnits="userSpaceOnUse" xlink:href="#b"/><linearGradient id="j" x1="104.59" x2="114.25" y1="147.03" y2="139.35" gradientUnits="userSpaceOnUse"><stop stop-color="#1f4e00" offset="0"/><stop stop-color="#153600" offset="1"/></linearGradient><linearGradient id="h" x1="72.722" x2="105.25" y1="134.43" y2="135.55" gradientUnits="userSpaceOnUse" xlink:href="#b"/><linearGradient id="g" x1="102.37" x2="112.59" y1="136.9" y2="131.28" gradientUnits="userSpaceOnUse"><stop stop-color="#1d4a00" offset="0"/><stop stop-color="#173b00" offset="1"/></linearGradient><filter id="a" x="-.011882" y="-.016365" width="1.0238" height="1.0327" color-interpolation-filters="sRGB"><feGaussianBlur stdDeviation="0.034159921"/></filter><linearGradient id="d" x1="76.861" x2="103.25" y1="127.79" y2="128.72" gradientUnits="userSpaceOnUse"><stop stop-color="#338000" offset="0"/><stop stop-color="#1f4e00" offset="1"/></linearGradient><filter id="c" x="-.002251" y="-.0031975" width="1.0045" height="1.0064" color-interpolation-filters="sRGB"><feGaussianBlur stdDeviation="0.0052847698"/></filter><filter id="l" x="-.0028325" y="-.0041091" width="1.0057" height="1.0082" color-interpolation-filters="sRGB"><feGaussianBlur stdDeviation="0.0080408463"/></filter><linearGradient id="i" x1="24.696" x2="64.359" y1="249.58" y2="251.07" gradientTransform="translate(50.514 -97.66)" gradientUnits="userSpaceOnUse"><stop stop-color="#f7f7f7" offset="0"/><stop stop-color="#ccc" stop-opacity=".80795" offset="1"/></linearGradient></defs><g transform="translate(-50.89 -42.288)"><g transform="translate(6.35 13.758)" stroke-linecap="round" stroke-linejoin="round"><g transform="matrix(2.6085 0 0 2.6085 -134.85 -281.23)"><path d="m104.67 120.42-2.3012 20.45 1.5568 5.5003c3.7933-1.9276 7.8183-3.3504 9.693-8.3957-8e-3 -0.0923-1.0135-2.2629-2.6828-2.8104-0.64948-0.83552-0.84344-1.5958-1.0548-2.2918-1.0932-3.5997-3.5818-11.582-4.8999-12.567-0.18521-0.13843-0.28006-0.13341-0.31096 0.11464z" fill="url(#g)" stroke-width="10"/><path d="m71.847 146.36c0.99144 1.2247 33.773 0.17863 33.817 1.3523 0.0726 1.9431-1.8358 46.316-1.8192 45.637-1.2315 0.97271-15.827 0.22635-26.441-1.8778-1.5947-0.31614-2.7717-0.53376-2.8636-2.0057z" fill="url(#e)" stroke-width="10"/><path d="m105.07 120.48c0.70635 5.4617-2.0092 20.157-2.0092 20.157 1.7437 1.1184 2.1843 4.7495 2.1843 4.7495-6.4794 2.7258-24.611 2.9615-35.987-3.1277 0.55101-1.5788 1.5373-2.602 2.5872-3.3078 1.2012-8.1797 4.2412-15.111 7.7203-19.342 0.46697-0.56789 1.6659 0.45866 2.1354-0.10512-3.3583 5.9585-5.3714 10.685-4.8286 18.521 2.0879 2.4284 8.2584 2.1808 20.373 2.5797 1.4005 0.0544 5.3726-9.1454 5.3598-20.112 0 0 2.3668-0.77195 2.4651-0.012z" fill="url(#h)" stroke-width="10"/><path d="m104.92 147.55s7.6729-6.35 7.6729-5.6885c0 0.64423-3.921 41.03-4.3473 43.885-0.0181 0.12116-0.0143 0.17133-0.0644 0.29751-0.53311 1.3437-4.2274 7.476-4.3368 7.312 0.0707-14.447 0.37581-29.748 1.0756-45.806z" fill="url(#f)" stroke-width="10"/><path transform="rotate(-2.5537 110.15 171.21)" d="m106.12 149.31 6.9-5.0098s-1.8596 2.0895-3.0219 2.9354c-1.1764 0.8562-3.878 2.0743-3.878 2.0743z" fill="#112b00" filter="url(#a)" opacity=".523" stroke-width="10"/><path d="m104.79 145.65c5.5012-3.0244 8.658-8.0385 8.658-8.0385 1.1576 2.1028 0.95424 3.1736 0.068 4.7862-0.69304 1.261-7.4877 6.8436-8.6845 7.2908-0.11989-0.0126-0.14461-0.0531-0.17909-0.0148z" fill="url(#j)" stroke-width="10"/><path transform="matrix(.58369 -.59474 .64066 .5526 -42.822 99.771)" d="m73.484 154.39c9.2316-3.6023 11.354-5.056 20.639-11.751-1.5517 2.624-10.113 8.438-10.113 8.438s-7.4185 4.4777-10.526 3.3127z" fill="#112b00" filter="url(#a)" opacity=".36562" stroke-width="10"/><path transform="rotate(34.736 99.179 149.9)" d="m73.18 154.74c9.2316-3.6023 11.935-4.9877 21.221-11.682-1.5517 2.624-9.8156 8.2994-9.8156 8.2994s-8.2969 4.5479-11.405 3.383z" fill="#112b00" filter="url(#a)" opacity=".36562" stroke-width="10"/><path d="m103.3 119.97c1.0127 0.71207-0.26576 16.379-3.8612 21.082-1.5214 1.9901-23.604 1.0327-24.815-2.557-1.5939-4.7274 5.8583-19.133 6.8792-19.248 8.4475-0.88261 19.974-0.55779 21.797 0.72353z" fill="url(#d)" stroke-width="10"/><path transform="rotate(34.736 88.903 158.51)" d="m68.926 158.71 27.829-16.38s-9.4207 7.4486-14.638 10.432c-4.1865 2.3941-13.191 5.9478-13.191 5.9478z" fill="#112b00" filter="url(#a)" opacity=".523" stroke-width="10"/><path d="m69.372 142.02c7.1385 5.4002 32.428 4.8092 35.874 3.3687 0.22968 1.7059 0.31329 3.2106-0.41749 4.2968-13.248 0.0161-24.909-0.75953-34.77-2.7493-0.11499 9e-3 -2.3221-1.5771-0.68736-4.9162z" fill="url(#k)" stroke-width="10"/><path d="m103.92 140.16 6.813-4.6964-2.9104 2.712z" fill="#112b00" filter="url(#l)" opacity=".1816" stroke-width="10"/><path transform="rotate(34.736 95.009 154.28)" d="m69.004 158.78c9.3523-4.2396 19.055-9.7819 28.34-16.477-5.1965 4.0983-15.3 10.399-15.819 10.641z" fill="#12264b" filter="url(#a)" opacity=".36562" stroke-width="10"/><path transform="matrix(.32071 -.048701 .053004 .29817 73.681 102.11)" d="m69.004 158.78c9.3523-4.2396 19.055-9.7819 28.34-16.477-5.1965 4.0983-15.3 10.399-15.819 10.641z" fill="#112b00" filter="url(#a)" opacity=".23729" stroke-width="10"/><path transform="matrix(.41567 .25483 -.22379 .59286 91.648 31.06)" d="m97.288 144.72 5.6345-3.9666-2.9778 2.476z" fill="#112b00" filter="url(#c)" opacity=".182" stroke-width="10" style="mix-blend-mode:normal"/><path transform="matrix(-.41666 .25322 .22149 .59372 83.653 29.394)" d="m97.288 144.72 5.6345-3.9666-2.9778 2.476z" fill="#112b00" filter="url(#c)" opacity=".182" stroke-width="10" style="mix-blend-mode:normal"/><path d="m101.68 119.98c0.88273 0.62068-0.23165 14.277-3.3656 18.376-1.3262 1.7347-20.575 0.90018-21.63-2.2288-1.3893-4.1207 5.1064-16.677 5.9962-16.778 7.3632-0.76932 17.411-0.48619 18.999 0.63067z" fill="#bcd35f" opacity=".28329" stroke-width="8.7165"/></g><path d="m90.134 133.37c-0.28719-0.0206-0.64379 0.13059-0.7798 0.3483l-5.5123 8.6661 6.5872 4.2421 6.0513-9.2821-1.8102-3.6794zm4.8209 0.31057 5.7779 11.526-1.8288 0.91622 7.599 1.8082 3.1001-7.166-1.8288 0.91622-3.5507-7.027s-0.30858-0.52115-0.73226-0.5209c-2.8859-0.18468-8.5364-0.4532-8.5364-0.4532zm-8.6005 11.768-7.7587 0.87539 1.7048 1.1307-4.33 6.5758s-0.29882 0.52658-0.08785 0.894c1.2753 2.5954 3.8535 7.6311 3.8535 7.6311l7.1246-10.746 1.7048 1.1307zm24.363 1.7715-6.9727 3.5734 4.9992 9.8893 4.0907 0.2775 2.529-3.7776c0.16175-0.2382 0.20961-0.62223 0.0894-0.84904zm-10.785 11.159-5.3738 5.6694 4.6467 6.2746 0.12402-2.0417 7.8605 0.44959s0.60538-6e-3 0.81752-0.37259c1.6064-2.4046 4.671-7.1598 4.671-7.1598l-12.87-0.77721zm-17.778 1.0304-2.2913 3.4008 2.0009 4.0819c0.12501 0.25936 0.43337 0.49281 0.68988 0.50281l10.26 0.47181 0.40359-7.8248z" fill="url(#i)" stroke-width="10.382"/></g></g></svg>